HIERARCHY
ROOT Hips
{
	OFFSET 0.000000 0.000000 0.000000
	CHANNELS 6 Xposition Yposition Zposition Zrotation Yrotation Xrotation 
	JOINT LowerBack
	{
		OFFSET 0.000000 0.000000 0.000000
		CHANNELS 3 Zrotation Yrotation Xrotation
		JOINT Spine
		{
			OFFSET 0.028270 2.035590 -0.193380
			CHANNELS 3 Zrotation Yrotation Xrotation
			JOINT Spine1
			{
				OFFSET 0.056720 2.048850 -0.042750
				CHANNELS 3 Zrotation Yrotation Xrotation
				JOINT Neck
				{
					OFFSET 0.000000 0.000000 0.000000
					CHANNELS 3 Zrotation Yrotation Xrotation
					JOINT Neck1
					{
						OFFSET -0.054170 1.746240 0.172020
						CHANNELS 3 Zrotation Yrotation Xrotation
						JOINT Head
						{
							OFFSET 0.104070 1.761360 -0.123970
							CHANNELS 3 Zrotation Yrotation Xrotation
							End Site
							{
								OFFSET 0.000000 0.000000 0.000000
							}
						}
					}
				}
				JOINT LeftShoulder
				{
					OFFSET 0.000000 0.000000 0.000000
					CHANNELS 3 Zrotation Yrotation Xrotation
					JOINT LeftArm
					{
						OFFSET 3.362410 1.200890 -0.311210
						CHANNELS 3 Zrotation Yrotation Xrotation
						JOINT LeftForeArm
						{
							OFFSET 4.983000 -0.000000 -0.000000
							CHANNELS 3 Zrotation Yrotation Xrotation
							JOINT LeftHand
							{
								OFFSET 3.483560 -0.000000 -0.000000
								CHANNELS 3 Zrotation Yrotation Xrotation
								JOINT LeftFingerBase
								{
									OFFSET 0.000000 0.000000 0.000000
									CHANNELS 3 Zrotation Yrotation Xrotation
									JOINT LeftHandIndex1
									{
										OFFSET 0.715260 -0.000000 -0.000000
										CHANNELS 3 Zrotation Yrotation Xrotation
										End Site
										{
											OFFSET 0.000000 0.000000 0.000000
										}
									}
								}
								JOINT LThumb
								{
									OFFSET 0.000000 0.000000 0.000000
									CHANNELS 3 Zrotation Yrotation Xrotation
									End Site
									{
										OFFSET 0.000000 0.000000 0.000000
									}
								}
							}
						}
					}
				}
				JOINT RightShoulder
				{
					OFFSET 0.000000 0.000000 0.000000
					CHANNELS 3 Zrotation Yrotation Xrotation
					JOINT RightArm
					{
						OFFSET -3.136600 1.374050 -0.404650
						CHANNELS 3 Zrotation Yrotation Xrotation
						JOINT RightForeArm
						{
							OFFSET -5.241900 -0.000000 -0.000000
							CHANNELS 3 Zrotation Yrotation Xrotation
							JOINT RightHand
							{
								OFFSET -3.444170 -0.000000 -0.000000
								CHANNELS 3 Zrotation Yrotation Xrotation
								JOINT RightFingerBase
								{
									OFFSET 0.000000 0.000000 0.000000
									CHANNELS 3 Zrotation Yrotation Xrotation
									JOINT RightHandIndex1
									{
										OFFSET -0.622530 -0.000000 -0.000000
										CHANNELS 3 Zrotation Yrotation Xrotation
										End Site
										{
											OFFSET 0.000000 0.000000 0.000000
										}
									}
								}
								JOINT RThumb
								{
									OFFSET 0.000000 0.000000 0.000000
									CHANNELS 3 Zrotation Yrotation Xrotation
									End Site
									{
										OFFSET 0.000000 0.000000 0.000000
									}
								}
							}
						}
					}
				}
			}
		}
	}
}
}
MOTION
Frames: 17
Frame Time: 0.008333
1.276151 15.707037 3.102110 0.480661 26.165452 35.735559 0.657595 0.111626 6.836498 -0.439961 0.297119 -1.597294 -4.830570 0.299738 -0.335678 8.182122 -9.301880 -7.856967 -1.030279 -0.048476 -0.451326 0.000000 0.000000 0.000000 5.962531 12.814857 2.807734 -67.725173 28.692702 16.861637 -0.617527 -78.686217 0.010823 -7.145026 4.497362 -0.279190 0.048088 0.055128 -0.000000 0.000000 0.000000 0.000000 0.000000 0.000000 0.000000 1.608941 -2.420457 -0.410785 67.615197 1.497940 7.878539 179.588799 81.466730 179.999940 -0.178874 1.164804 -0.001776 -0.002267 -0.404197 0.000000 0.000000 0.000000 0.000000 0.000000 0.000000 0.000000 
1.348239 15.666567 3.227530 0.272529 25.297906 35.165317 0.401255 0.118801 6.961064 -0.520924 0.307010 -1.580574 -4.941089 0.314407 -0.362374 8.310383 -9.142386 -7.813122 -1.069538 -0.052213 -0.436518 0.000000 0.000000 0.000000 5.885923 12.806742 2.818525 -68.133650 28.200328 16.286664 -0.627683 -78.512221 0.010937 -7.110763 4.529152 -0.279785 0.047459 0.056421 -0.000000 0.000000 0.000000 0.000000 0.000000 0.000000 0.000000 1.783385 -2.246869 -0.447425 68.684458 1.497396 7.305575 179.615385 82.012271 -179.998688 0.046578 1.266555 0.001409 -0.010695 -0.406746 0.000000 0.000000 0.000000 0.000000 0.000000 0.000000 0.000000 
1.416414 15.628466 3.353377 0.124484 24.418637 34.624851 0.092771 0.117128 7.098646 -0.613231 0.309794 -1.561778 -5.054799 0.322349 -0.393777 8.439006 -8.972302 -7.760329 -1.113522 -0.056367 -0.420075 0.000000 0.000000 0.000000 5.797296 12.767799 2.829906 -68.520117 27.612937 15.669246 -0.640314 -78.294524 0.011028 -7.051799 4.563867 -0.279475 0.046230 0.058043 -0.000000 0.000000 0.000000 0.000000 0.000000 0.000000 0.000000 1.981960 -2.071835 -0.484208 69.826049 1.489125 6.684434 179.645831 82.617564 -179.997742 0.211074 1.407672 0.004197 -0.018181 -0.410130 0.000000 0.000000 0.000000 0.000000 0.000000 0.000000 0.000000 
1.480978 15.593150 3.479439 0.027085 23.540620 34.120768 -0.253425 0.105862 7.237251 -0.712980 0.304086 -1.542607 -5.169127 0.322029 -0.426791 8.562735 -8.796638 -7.699352 -1.161992 -0.060922 -0.402038 0.000000 0.000000 0.000000 5.697219 12.701579 2.839976 -68.886017 26.926105 15.012599 -0.655789 -78.025542 0.011083 -6.962540 4.599662 -0.277861 0.044295 0.060048 -0.000000 0.000000 0.000000 0.000000 0.000000 0.000000 0.000000 2.202813 -1.904189 -0.521375 71.019827 1.479293 6.038184 179.680489 83.292703 -179.997466 0.279288 1.591916 0.005891 -0.023957 -0.414286 0.000000 0.000000 0.000000 0.000000 0.000000 0.000000 0.000000 
1.542534 15.560945 3.605416 -0.031194 22.673082 33.656528 -0.621687 0.084980 7.366584 -0.815995 0.289231 -1.524321 -5.280763 0.312636 -0.458221 8.675389 -8.620754 -7.631300 -1.214172 -0.065814 -0.382513 0.000000 0.000000 0.000000 5.585368 12.613001 2.846703 -69.234520 26.138898 14.319575 -0.674297 -77.700616 0.011090 -6.838451 4.635577 -0.274841 0.041588 0.062479 -0.000000 0.000000 0.000000 0.000000 0.000000 0.000000 0.000000 2.440683 -1.752469 -0.558935 72.241434 1.473505 5.395928 179.719279 84.046361 -179.998079 0.220194 1.823190 0.005391 -0.027356 -0.419112 0.000000 0.000000 0.000000 0.000000 0.000000 0.000000 0.000000 
1.601699 15.531973 3.731013 -0.066289 21.823137 33.230054 -0.993562 0.055411 7.479718 -0.917533 0.265636 -1.507511 -5.386311 0.294418 -0.484959 8.770972 -8.450056 -7.557611 -1.268992 -0.070954 -0.361685 0.000000 0.000000 0.000000 5.461502 12.508572 2.847954 -69.569706 25.252655 13.594321 -0.695720 -77.319420 0.011037 -6.675660 4.672528 -0.270116 0.038081 0.065349 -0.000000 0.000000 0.000000 0.000000 0.000000 0.000000 0.000000 2.688585 -1.624173 -0.596556 73.464041 1.475300 4.789441 179.761601 84.885710 -179.999740 0.011779 2.104664 0.001499 -0.027901 -0.424437 0.000000 0.000000 0.000000 0.000000 0.000000 0.000000 0.000000 
1.659237 15.506226 3.855952 -0.094179 20.994627 32.836758 -1.352834 0.018410 7.572778 -1.013432 0.234172 -1.492254 -5.482416 0.268110 -0.504312 8.844127 -8.289453 -7.479933 -1.325026 -0.076221 -0.339822 0.000000 0.000000 0.000000 5.326296 12.394903 2.841888 -69.896329 24.271654 12.840656 -0.719698 -76.885449 0.010911 -6.471155 4.711926 -0.263786 0.033785 0.068671 -0.000000 0.000000 0.000000 0.000000 0.000000 0.000000 0.000000 2.937750 -1.525187 -0.633459 74.660115 1.485780 4.251696 179.806349 85.815244 179.997484 -0.355233 2.437679 -0.007686 -0.025380 -0.430018 0.000000 0.000000 0.000000 0.000000 0.000000 0.000000 0.000000 
1.715791 15.483598 3.979952 -0.127081 20.189369 32.471391 -1.686538 -0.024474 7.644291 -1.100329 0.196144 -1.478377 -5.565913 0.234894 -0.514301 8.890917 -8.143149 -7.399863 -1.380678 -0.081480 -0.317192 0.000000 0.000000 0.000000 5.180761 12.277722 2.826963 -70.219196 23.202723 12.063142 -0.745554 -76.407487 0.010702 -6.223774 4.755870 -0.255652 0.028763 0.072444 -0.000000 0.000000 0.000000 0.000000 0.000000 0.000000 0.000000 3.178974 -1.459410 -0.668375 75.803909 1.502741 3.813542 179.852037 86.836565 179.993643 -0.875793 2.820358 -0.023665 -0.019855 -0.435534 0.000000 0.000000 0.000000 0.000000 0.000000 0.000000 0.000000 
1.771882 15.463897 4.102788 -0.175893 19.409034 32.128128 -1.984701 -0.071698 7.694717 -1.175645 0.152994 -1.465581 -5.634386 0.196112 -0.513830 8.909140 -8.015039 -7.319043 -1.434269 -0.086590 -0.294110 0.000000 0.000000 0.000000 5.028368 12.160046 2.802120 -70.541726 22.055163 11.266626 -0.772385 -75.898160 0.010400 -5.933525 4.805675 -0.245915 0.023106 0.076677 -0.000000 0.000000 0.000000 0.000000 0.000000 0.000000 0.000000 3.403292 -1.429193 -0.699454 76.872900 1.520594 3.501520 179.897009 87.947955 179.988920 -1.529246 3.246203 -0.048239 -0.011683 -0.440588 0.000000 0.000000 0.000000 0.000000 0.000000 0.000000 0.000000 
1.827837 15.446951 4.224259 -0.243949 18.654205 31.804216 -2.243633 -0.122298 7.725686 -1.238334 0.105695 -1.453586 -5.686005 0.152668 -0.502760 8.898729 -7.907974 -7.238704 -1.484292 -0.091425 -0.270831 0.000000 0.000000 0.000000 4.872776 12.042348 2.766857 -70.866081 20.840751 10.456174 -0.799065 -75.374640 0.010001 -5.602971 4.862151 -0.234474 0.016949 0.081383 -0.000000 0.000000 0.000000 0.000000 0.000000 0.000000 0.000000 3.603673 -1.435101 -0.724557 77.848669 1.532339 3.336464 179.939732 89.144300 179.983614 -2.281776 3.703855 -0.081911 -0.001449 -0.444743 0.000000 0.000000 0.000000 0.000000 0.000000 0.000000 0.000000 
1.883792 15.432556 4.344241 -0.331950 17.926713 31.498066 -2.462932 -0.175595 7.739471 -1.288227 0.055019 -1.442198 -5.719879 0.105288 -0.481762 8.861718 -7.824587 -7.160019 -1.529455 -0.095878 -0.247644 0.000000 0.000000 0.000000 4.719454 11.922291 2.721193 -71.192408 19.572163 9.637239 -0.824405 -74.855982 0.009499 -5.236752 4.924723 -0.221431 0.010453 0.086585 0.000000 0.000000 0.000000 0.000000 0.000000 0.000000 0.000000 3.775318 -1.476729 -0.741305 78.717352 1.529495 3.331536 -0.020921 89.582539 -0.021884 -3.089344 4.177076 -0.124482 0.010093 -0.447548 0.000000 0.000000 0.000000 0.000000 0.000000 0.000000 0.000000 
1.939631 15.420517 4.462653 -0.437115 17.229284 31.209849 -2.645806 -0.231442 7.739024 -1.326125 0.001299 -1.431277 -5.736137 0.054286 -0.452351 8.802311 -7.766861 -7.083837 -1.568908 -0.099876 -0.224799 0.000000 0.000000 0.000000 4.575783 11.794532 2.665635 -71.518858 18.263308 8.816331 -0.847202 -74.362530 0.008911 -4.842084 4.991324 -0.206989 0.003802 0.092313 0.000000 0.000000 0.000000 0.000000 0.000000 0.000000 0.000000 3.916971 -1.552722 -0.747311 79.469929 1.503426 3.492233 0.014528 88.243793 -0.027142 -3.901708 4.646958 -0.173955 0.022105 -0.448613 0.000000 0.000000 0.000000 0.000000 0.000000 0.000000 0.000000 
1.995084 15.410725 4.579408 -0.553855 16.565529 30.941176 -2.797872 -0.290035 7.727462 -1.353517 -0.055451 -1.420830 -5.735768 -0.000321 -0.416832 8.726271 -7.735820 -7.010452 -1.602269 -0.103389 -0.202431 0.000000 0.000000 0.000000 4.448995 11.651053 2.601036 -71.842010 16.929423 7.999188 -0.866286 -73.914973 0.008239 -4.428661 5.058880 -0.191346 -0.002797 0.098591 0.000000 0.000000 0.000000 0.000000 0.000000 0.000000 0.000000 4.030485 -1.660759 -0.740385 80.101956 1.446085 3.815298 0.046258 86.853488 -0.031744 -4.667926 5.093594 -0.226928 0.033756 -0.447645 0.000000 0.000000 0.000000 0.000000 0.000000 0.000000 0.000000 
2.049706 15.403097 4.694445 -0.675536 15.938877 30.694054 -2.925949 -0.351836 7.708104 -1.372307 -0.115469 -1.410834 -5.720590 -0.058738 -0.377660 8.640529 -7.732258 -6.940373 -1.629633 -0.106418 -0.180767 0.000000 0.000000 0.000000 4.347602 11.483608 2.528562 -72.156071 15.583722 7.193204 -0.880748 -73.530970 0.007509 -4.008277 5.123113 -0.174805 -0.009141 0.105442 0.000000 0.000000 0.000000 0.000000 0.000000 0.000000 0.000000 4.120925 -1.798482 -0.718735 80.613105 1.350913 4.289725 0.075080 85.427817 -0.035343 -5.339987 5.498631 -0.279009 0.044293 -0.444491 0.000000 0.000000 0.000000 0.000000 0.000000 0.000000 0.000000 
2.103017 15.397578 4.807715 -0.795920 15.352617 30.471084 -3.037115 -0.417265 7.684217 -1.384575 -0.178973 -1.401179 -5.693000 -0.121122 -0.337036 8.552404 -7.755638 -6.874294 -1.651522 -0.108990 -0.160125 0.000000 0.000000 0.000000 4.279621 11.287064 2.449583 -72.454373 14.235653 6.408170 -0.890018 -73.223323 0.006751 -3.593849 5.179636 -0.157867 -0.015041 0.112879 -0.000000 0.000000 0.000000 0.000000 0.000000 0.000000 0.000000 4.195596 -1.962579 -0.681373 81.006437 1.212896 4.897134 0.102251 83.985086 -0.037704 -5.877736 5.848244 -0.325290 0.053108 -0.439166 0.000000 0.000000 0.000000 0.000000 0.000000 0.000000 0.000000 
2.154567 15.394190 4.919117 -0.910092 14.808294 30.274041 -3.137083 -0.486615 7.659052 -1.392254 -0.246138 -1.391866 -5.656000 -0.187578 -0.297613 8.468780 -7.804375 -6.812448 -1.668857 -0.111167 -0.140684 0.000000 0.000000 0.000000 4.250529 11.054798 2.365505 -72.728304 12.895859 5.651809 -0.893704 -73.002719 0.006003 -3.199487 5.224532 -0.141130 -0.020307 0.120884 -0.000000 0.000000 0.000000 0.000000 0.000000 0.000000 0.000000 4.262886 -2.149154 -0.627681 81.288039 1.028060 5.612153 0.129209 82.545004 -0.038726 -6.252314 6.134341 -0.361778 0.059777 -0.431846 0.000000 0.000000 0.000000 0.000000 0.000000 0.000000 0.000000 
2.204000 15.392931 5.028564 -1.014718 14.305468 30.104156 -3.229840 -0.559745 7.635442 -1.396921 -0.316779 -1.382748 -5.612629 -0.257832 -0.261125 8.395327 -7.875890 -6.755665 -1.682711 -0.113015 -0.122793 0.000000 0.000000 0.000000 4.264371 10.786120 2.277773 -72.968640 11.568866 4.934170 -0.891898 -72.872294 0.005310 -2.838350 5.254271 -0.125298 -0.024800 0.129427 -0.000000 0.000000 0.000000 0.000000 0.000000 0.000000 0.000000 4.330832 -2.353764 -0.558035 81.465681 0.793348 6.404393 0.157278 81.127976 -0.038447 -6.449431 6.355004 -0.385371 0.064103 -0.422838 0.000000 0.000000 0.000000 0.000000 0.000000 0.000000 0.000000 
